<svg xmlns="http://www.w3.org/2000/svg" viewBox="0 0 249.61 100.56"><defs><style>.cls-1{fill:#003876;}.cls-2{fill:#ed232a;}</style></defs><title>Asset 3</title><g id="Layer_2" data-name="Layer 2"><g id="Layer_1-2" data-name="Layer 1"><path class="cls-1" d="M138.23,43.94,140,35.07l-4.66-11-5.22-5.44-.3-.25c8.36,3.63,14.61,13.49,15.65,25.43v.06Zm-2.66,0-9.17,0v-25l.11.1c5.39,4.63,9.06,13.89,9.06,24.56Zm9.83,0-7.15,0s0-.85,0-1.32a43.23,43.23,0,0,0-.25-4.39,37.28,37.28,0,0,0-5.65-16.62,19.58,19.58,0,0,0-2.53-3.16l0,0s.7.42,1.09.67c.57.37,1.14.74,1.68,1.12a34.45,34.45,0,0,1,4.41,3.8c.09.09.39.4.73.77s.69.79,1,1.11a29.14,29.14,0,0,1,3.09,4.48,26.32,26.32,0,0,1,1.35,2.85,34.43,34.43,0,0,1,2.32,10.38S145.4,43.92,145.4,43.92Zm0-.33Zm3.57-.91-3.53-14.3L138,20.45s-2.19-1.55-3.45-2.41c-.48-.32-.87-.53-.87-.53l0,0a29.6,29.6,0,0,1,18.49,26.36v0Zm-.84,1.24s-.26-2.89-.78-5.48a34,34,0,0,0-1.22-4.37,32.59,32.59,0,0,0-1.71-4.16,31.1,31.1,0,0,0-5.34-8,27.26,27.26,0,0,0-2.66-2.53c-.68-.56-1.27-1-1.71-1.31.26.16.58.35,1,.58.75.44,1.65,1,2.61,1.61.43.29.83.6,1.28.94.09.07,1.45,1.12,2.78,2.38a33.51,33.51,0,0,1,2.88,3.15,32.6,32.6,0,0,1,3.61,5.63,31,31,0,0,1,2.57,7.19c.38,1.66.66,4.33.66,4.33Zm-2.7,0-7.15,0s0-.85,0-1.32a43.23,43.23,0,0,0-.25-4.39,37.28,37.28,0,0,0-5.65-16.62,19.58,19.58,0,0,0-2.53-3.16l0,0s.7.42,1.09.67c.57.37,1.14.74,1.68,1.12a34.45,34.45,0,0,1,4.41,3.8c.09.09.39.4.73.77s.69.79,1,1.11a29.14,29.14,0,0,1,3.09,4.48,26.32,26.32,0,0,1,1.35,2.85,34.43,34.43,0,0,1,2.32,10.38S145.4,43.92,145.4,43.92Zm0-.33ZM120,18.67l-5.21,5.45-4.66,11L111.79,44l-7.19,0v-.07c1.05-11.94,7.3-21.8,15.65-25.44A2.82,2.82,0,0,1,120,18.67ZM114.45,44v-.39c0-10.67,3.68-19.93,9.06-24.57l.12-.09v25Zm-9.8-.36Zm15.59-25.15a19.31,19.31,0,0,0-2.54,3.16,37.28,37.28,0,0,0-5.64,16.62,36.11,36.11,0,0,0-.25,4.39c0,.48,0,1.32,0,1.32l-7.14,0,0-.32h0A34.48,34.48,0,0,1,107,33.22a24.48,24.48,0,0,1,1.34-2.85,29.14,29.14,0,0,1,3.09-4.48c.27-.32.63-.74,1-1.11s.63-.68.72-.77a35.42,35.42,0,0,1,4.42-3.81c.53-.38,1.1-.75,1.67-1.11.39-.25,1.09-.67,1.09-.67Zm-4.77-.41c-1.25.85-3.45,2.41-3.45,2.41l-7.41,7.93-3.76,15.55h-3v0A29.64,29.64,0,0,1,116.3,17.53l0,0S116,17.72,115.47,18.05ZM111,22a31.45,31.45,0,0,0-5.34,8,32.42,32.42,0,0,0-1.7,4.16,34.91,34.91,0,0,0-1.23,4.38c-.51,2.58-.77,5.48-.77,5.48H98s.29-2.67.66-4.34a31,31,0,0,1,2.58-7.19,32.6,32.6,0,0,1,3.61-5.63,32.1,32.1,0,0,1,2.87-3.15c1.34-1.26,2.69-2.31,2.79-2.38.45-.34.84-.65,1.28-.94,1-.64,1.85-1.18,2.61-1.61l1-.58c-.43.3-1,.74-1.71,1.3A31.28,31.28,0,0,0,111,22Zm-6.32,21.65Zm15.59-25.15a19.31,19.31,0,0,0-2.54,3.16,37.28,37.28,0,0,0-5.64,16.62,36.11,36.11,0,0,0-.25,4.39c0,.48,0,1.32,0,1.32l-7.14,0,0-.32h0A34.48,34.48,0,0,1,107,33.22a24.48,24.48,0,0,1,1.34-2.85,29.14,29.14,0,0,1,3.09-4.48c.27-.32.63-.74,1-1.11s.63-.68.72-.77a35.42,35.42,0,0,1,4.42-3.81c.53-.38,1.1-.75,1.67-1.11.39-.25,1.09-.67,1.09-.67Zm10.1-9.87H119.63a.18.18,0,0,1-.18-.18V8a.18.18,0,0,1,.18-.18h10.71a.18.18,0,0,1,.18.18v.41A.18.18,0,0,1,130.34,8.59Zm0,8.09H119.63a.18.18,0,0,1-.18-.18v-.41a.18.18,0,0,1,.18-.18h10.71a.18.18,0,0,1,.18.18v.41A.18.18,0,0,1,130.34,16.68ZM153.62,46.8H96.4a.18.18,0,0,1-.18-.18v-.48A.18.18,0,0,1,96.4,46h57.22a.18.18,0,0,1,.18.18v.48A.18.18,0,0,1,153.62,46.8ZM124,2.19h-.17a0,0,0,0,1,0,0V1.73s0,0,0,0H124s0,0,0,0v.42A0,0,0,0,1,124,2.19Zm2.17,0H126a0,0,0,0,1,0,0V1.73s0,0,0,0h.17s0,0,0,0v.42A0,0,0,0,1,126.16,2.19Zm-2.37.08V2.14h2.4v.13Zm1.3-1.73h-.19a0,0,0,0,1-.05-.05V.05a0,0,0,0,1,.05,0h.19a0,0,0,0,1,0,.05V.49A0,0,0,0,1,125.09.54Zm-.17,2.8V.54h.15v2.8Zm-4.07,4v0a4.15,4.15,0,1,1,8.29,0v0Zm9.34,1.26H119.78a.32.32,0,0,1-.32-.32V8.14a.32.32,0,0,1,.32-.32h10.41a.32.32,0,0,1,.33.32v.09A.32.32,0,0,1,130.19,8.55Zm0,8.12H119.78a.33.33,0,0,1-.32-.32v-.09a.32.32,0,0,1,.32-.32h10.41a.32.32,0,0,1,.33.32v.09A.33.33,0,0,1,130.19,16.67Zm-4.67-1.42h-1a.32.32,0,0,1-.33-.32V9.36a.33.33,0,0,1,.33-.32h1a.32.32,0,0,1,.32.32v5.57A.32.32,0,0,1,125.52,15.25Zm2.71,0h-1a.32.32,0,0,1-.33-.32V9.36a.33.33,0,0,1,.33-.32h1a.32.32,0,0,1,.32.32v5.57A.32.32,0,0,1,128.23,15.25Zm-5.44,0h-1a.32.32,0,0,1-.32-.32V9.36a.32.32,0,0,1,.32-.32h1a.32.32,0,0,1,.32.32v5.57A.32.32,0,0,1,122.79,15.25Zm12.57,31.06V45.05a.27.27,0,0,1,.27-.27h2.53a.27.27,0,0,1,.26.27v1.18Zm2.74,4.51h-2.42a.32.32,0,0,1-.32-.32V48.08a.32.32,0,0,1,.32-.32h2.42a.32.32,0,0,1,.32.32V50.5A.32.32,0,0,1,138.1,50.82Zm7.06-4.51V45.05a.27.27,0,0,1,.27-.27H148a.27.27,0,0,1,.26.27v1.18Zm2.74,4.51h-2.42a.32.32,0,0,1-.32-.32V48.08a.32.32,0,0,1,.32-.32h2.42a.32.32,0,0,1,.32.32V50.5A.32.32,0,0,1,147.9,50.82Zm-36.32-4.6V45a.28.28,0,0,1,.27-.27h2.53a.28.28,0,0,1,.27.27v1.27Zm2.75,4.6h-2.42a.32.32,0,0,1-.32-.32V48.08a.32.32,0,0,1,.32-.33h2.42a.32.32,0,0,1,.32.33V50.5A.32.32,0,0,1,114.33,50.82Zm-12.55-4.6V45a.28.28,0,0,1,.27-.27h2.53a.28.28,0,0,1,.27.27v1.27Zm2.75,4.6H102.1a.32.32,0,0,1-.32-.32V48.08a.33.33,0,0,1,.32-.33h2.43a.32.32,0,0,1,.32.33V50.5A.32.32,0,0,1,104.53,50.82Zm18.94-4.6V45a.28.28,0,0,1,.27-.27h2.53a.28.28,0,0,1,.27.27v1.27Zm2.75,4.6h-2.43a.32.32,0,0,1-.32-.32V48.08a.32.32,0,0,1,.32-.33h2.43a.33.33,0,0,1,.32.33V50.5A.32.32,0,0,1,126.22,50.82Zm27.26-4H96.55a.32.32,0,0,1-.32-.32v-.2a.32.32,0,0,1,.32-.32h56.93a.32.32,0,0,1,.32.32v.2A.32.32,0,0,1,153.48,46.8Zm0,6.73H96.54a.32.32,0,0,1-.32-.32V51.87a.33.33,0,0,1,.32-.33h56.94a.32.32,0,0,1,.32.33v1.34A.32.32,0,0,1,153.48,53.53Z"/><path class="cls-1" d="M58.33,62.09h2.88c1.73,0,2.87.92,2.87,2.43v0c0,1.65-1.38,2.51-3,2.51H59.2v2.71h-.87Zm2.77,4.18c1.27,0,2.11-.68,2.11-1.69v0c0-1.1-.83-1.67-2.07-1.67H59.2v3.38Z"/><path class="cls-1" d="M66.91,62.09h3.31a3,3,0,0,1,2.18.77A2.12,2.12,0,0,1,73,64.37v0a2.25,2.25,0,0,1-2.08,2.24l2.36,3.14H72.2l-2.23-3H67.78v3h-.87ZM70.14,66c1.15,0,2-.6,2-1.58v0c0-.94-.72-1.51-2-1.51H67.78V66Z"/><path class="cls-1" d="M76.1,62.09h5.55v.79H77V65.5h4.19v.79H77V69H81.7v.79H76.1Z"/><path class="cls-1" d="M84.19,68.65l.54-.64a3.64,3.64,0,0,0,2.63,1.09c1,0,1.71-.55,1.71-1.31v0c0-.71-.38-1.12-2-1.46-1.77-.38-2.58-1-2.58-2.21v0A2.26,2.26,0,0,1,87,62a4,4,0,0,1,2.7.94l-.5.67A3.4,3.4,0,0,0,87,62.76c-1,0-1.63.55-1.63,1.24v0c0,.72.39,1.13,2.08,1.49s2.5,1,2.5,2.17v0c0,1.31-1.1,2.17-2.62,2.17A4.51,4.51,0,0,1,84.19,68.65Z"/><path class="cls-1" d="M93,62.09h.87v7.68H93Z"/><path class="cls-1" d="M97.41,62.09h2.67a3.83,3.83,0,0,1,4.08,3.82v0a3.85,3.85,0,0,1-4.08,3.84H97.41ZM100.08,69a3,3,0,0,0,3.18-3v0a3,3,0,0,0-3.18-3h-1.8V69Z"/><path class="cls-1" d="M107.24,62.09h5.55v.79h-4.68V65.5h4.19v.79h-4.19V69h4.74v.79h-5.61Z"/><path class="cls-1" d="M115.84,62.09h.81l4.84,6.15V62.09h.84v7.68h-.69l-5-6.3v6.3h-.84Z"/><path class="cls-1" d="M125.42,66v0a3.87,3.87,0,0,1,3.88-4,4,4,0,0,1,3,1.21l-.6.64a3.33,3.33,0,0,0-2.41-1.05,3,3,0,0,0-3,3.15v0a3,3,0,0,0,3,3.17A3.36,3.36,0,0,0,131.77,68l.57.56a4,4,0,0,1-3.07,1.35A3.83,3.83,0,0,1,125.42,66Z"/><path class="cls-1" d="M135.18,62.09h.87v7.68h-.87Z"/><path class="cls-1" d="M142.39,62h.81l3.5,7.74h-.93l-.9-2h-4.18l-.91,2h-.89ZM144.53,67,142.78,63,141,67Z"/><path class="cls-1" d="M154,62.09h2.67a3.83,3.83,0,0,1,4.08,3.82v0a3.85,3.85,0,0,1-4.08,3.84H154ZM156.67,69a3,3,0,0,0,3.18-3v0a3,3,0,0,0-3.18-3h-1.8V69Z"/><path class="cls-1" d="M163.83,62.09h5.55v.79H164.7V65.5h4.19v.79H164.7V69h4.74v.79h-5.61Z"/><path class="cls-1" d="M177,62.09h.87V69h4.32v.8H177Z"/><path class="cls-1" d="M187.86,62h.81l3.5,7.74h-.93l-.9-2h-4.18l-.91,2h-.89ZM190,67,188.25,63,186.5,67Z"/><path class="cls-1" d="M11.64,88.48a2.9,2.9,0,0,1-3.33-.93L5.88,84.41a2.91,2.91,0,0,0-2.6-1v3.08c0,1.1.76,1.29,1.77,1.42.11,0,0,.54-.09.54H.16c-.13,0-.22-.52-.1-.54.81-.11,1.32-.43,1.32-1.42V79.39c0-1-.56-1.34-1.32-1.55-.12,0,0-.55.1-.54A15,15,0,0,0,2,77.4c1.17,0,2.26-.1,3-.1,2.39,0,4,1,4,2.93a2.83,2.83,0,0,1-2.82,2.82v.08c.63,0,1.09.27,1.79,1.14l2.36,3a1.72,1.72,0,0,0,1.31.79C11.77,88,11.74,88.45,11.64,88.48ZM7,80.66a2.32,2.32,0,0,0-2.49-2.53c-.93,0-1.23.37-1.23,1.26v3.26h.46C6.1,82.65,7,82.24,7,80.66Z"/><path class="cls-1" d="M14.2,87.88c.92-.24,1.63-.38,1.63-1.55v-7c0-1-.65-1.29-1.33-1.46-.13,0-.05-.55.08-.54,1.15.13,3.15.1,4.12.1,1.44,0,2.48-.07,3.78-.1.38,0,.38.25.3.62l-.38,1.5a.27.27,0,0,1-.5,0c-.24-.77-.72-1.22-2.7-1.22-1.11,0-1.47.29-1.47,1.11v2.58c0,.42.21.5.52.5h.35a4.6,4.6,0,0,0,3-.72c.16-.14.51-.11.37.21l-.91,2c-.12.29-.36.26-.54,0a2.54,2.54,0,0,0-2.09-.71h-.22c-.31,0-.52.08-.52.49v2.66c0,.9.38,1.23,1.69,1.23,2.4,0,3.35-1.09,3.73-1.69.11-.17.54-.1.54.17,0,.81-.69,2.41-1.68,2.41s-1.76-.09-3.09-.09-3.19,0-4.63.09C14.13,88.47,14.07,87.91,14.2,87.88Z"/><path class="cls-1" d="M30,84.17v2.29c0,1.1.76,1.29,1.77,1.42.12,0,0,.54-.09.54h-4.8c-.13,0-.22-.52-.1-.54.81-.11,1.32-.43,1.32-1.42V79.39c0-1-.55-1.34-1.32-1.55-.12,0,0-.55.1-.54a15,15,0,0,0,1.82.1c1.17,0,2.16-.1,3-.1,2.46,0,4.49.9,4.49,3.39C36.16,83.51,33.51,84.7,30,84.17Zm0-4.78v4c2.69.38,4.1-.27,4.1-2.35a2.69,2.69,0,0,0-2.83-2.92C30.28,78.13,30,78.47,30,79.39Z"/><path class="cls-1" d="M40.63,84.27v-5a1.27,1.27,0,0,0-1.29-1.43c-.12,0,0-.54.1-.54h4.32c.13,0,.22.53.1.54a1.26,1.26,0,0,0-1.27,1.43v5c0,2.22,1.28,3.25,3,3.25a2.94,2.94,0,0,0,3.11-3.25v-5c0-1-.59-1.32-1.36-1.43-.11,0,0-.54.09-.54H51c.11,0,.21.53.08.54a1.25,1.25,0,0,0-1.26,1.43v5a4.1,4.1,0,0,1-4.41,4.42C43.13,88.67,40.63,87.49,40.63,84.27Zm4.65-10.88c.29-.41,1.62.81,1.24,1.09l-2.08,1.57c-.2.16-.76-.35-.6-.57Z"/><path class="cls-1" d="M63.73,85.22c0,2-1.79,3.23-4.44,3.23-.76,0-1.65-.09-2.82-.09a22.64,22.64,0,0,0-2.48.09c-.15,0-.23-.54-.1-.57.92-.24,1.63-.38,1.63-1.55v-7c0-1-.65-1.29-1.33-1.46-.13,0,0-.55.08-.54a16.93,16.93,0,0,0,1.92.1c1.26,0,2.2-.1,2.9-.1,2,0,3.72.86,3.73,2.6a2.37,2.37,0,0,1-2,2.39v.1A2.81,2.81,0,0,1,63.73,85.22ZM57.42,79.3v2.82h1.63a1.61,1.61,0,0,0,1.81-1.79,2.08,2.08,0,0,0-2.31-2.2C57.71,78.13,57.42,78.41,57.42,79.3Zm4.26,6.27a2.47,2.47,0,0,0-2.63-2.66H57.42v3.42c0,.87.45,1.3,1.82,1.3S61.68,87.22,61.68,85.57Z"/><path class="cls-1" d="M66.76,87.88c.92-.24,1.63-.38,1.63-1.55v-7c0-1.11-.65-1.33-1.33-1.43-.13,0,0-.54.08-.54h4.37c.11,0,.19.53.08.54a1.26,1.26,0,0,0-1.3,1.43v7c0,.9.38,1.23,1.69,1.23,2.4,0,3.35-1.09,3.73-1.69.11-.17.53-.1.53.17,0,.81-.68,2.41-1.67,2.41s-1.76-.09-3.09-.09-3.19,0-4.63.09C66.69,88.47,66.63,87.91,66.76,87.88Z"/><path class="cls-1" d="M79,87.88c.81-.11,1.31-.43,1.31-1.42V79.3c0-1-.5-1.32-1.31-1.43-.13,0,0-.54.09-.54h4.34c.13,0,.22.53.1.54-.68.1-1.32.32-1.32,1.43v7.16c0,1.1.64,1.33,1.32,1.42.12,0,0,.54-.1.54H79.13C79,88.42,78.91,87.9,79,87.88Z"/><path class="cls-1" d="M86.91,83.08a5.75,5.75,0,0,1,6.12-6c1.83,0,3.42.57,3.23,1.12l-.21.62c-.57,1.7-1.19-.47-4-.47-2.26,0-3.37,1.47-3.37,3.75a4.8,4.8,0,0,0,4.88,5.05,6.57,6.57,0,0,0,2.55-.74c.13-.08.46.28.36.43a6.16,6.16,0,0,1-3.29,1.83C90.51,88.67,86.91,87.12,86.91,83.08Z"/><path class="cls-1" d="M110.93,88.42h-4.18c-.21,0-.22-.51,0-.54.59-.11,1.22-.32.63-1.68l-.17-.39c-.16-.38-.43-.42-.9-.42H103c-.48,0-.75,0-.91.42l-.15.39c-.56,1.36,0,1.57.8,1.68.21,0,.16.54,0,.54H99.3c-.19,0-.23-.51,0-.54.65-.11,1-.33,1.61-1.68l2.68-6.14a6.74,6.74,0,0,0,.81-2.65,2.29,2.29,0,0,1,1.15-.24l3.87,9c.57,1.34,1,1.6,1.58,1.69C111.18,87.91,111.12,88.42,110.93,88.42Zm-4.42-4.17-1.85-4.43-1.87,4.43c-.1.23.14.26.36.26h3C106.37,84.51,106.61,84.48,106.51,84.25Z"/><path class="cls-1" d="M118.6,87.88c.92-.24,1.64-.38,1.64-1.55v-7c0-1-.65-1.29-1.34-1.46-.12,0,0-.55.08-.54a16.31,16.31,0,0,0,2,.1c1.24,0,2.35-.1,3.16-.1,3.83,0,5.9,2.28,5.9,5.34a5.62,5.62,0,0,1-5.92,5.81c-.76,0-1.74-.09-2.91-.09a23,23,0,0,0-2.49.09C118.54,88.47,118.48,87.91,118.6,87.88Zm9.52-4.34c0-3-1.64-5.4-4.5-5.4-1.12,0-1.48.35-1.48,1.16v7c0,.85.58,1.28,2.12,1.28C126.84,87.61,128.12,86.22,128.12,83.54Z"/><path class="cls-1" d="M133.47,82.94a5.65,5.65,0,0,1,5.75-5.86,5.53,5.53,0,0,1,5.71,5.72,5.64,5.64,0,0,1-5.75,5.87A5.56,5.56,0,0,1,133.47,82.94Zm9.58.74c0-3.2-2.17-5.52-4.45-5.52-1.4,0-3.23.92-3.23,3.89,0,3.23,2.17,5.55,4.43,5.55C141.2,87.6,143.05,86.68,143.05,83.68Z"/><path class="cls-1" d="M162.17,88.42H158c-.11,0-.19-.52-.1-.54a1.18,1.18,0,0,0,1.11-1.42l-.3-5.33-2.56,5.23a8.66,8.66,0,0,0-.64,1.63c0,.19-.36.29-.61.29a.52.52,0,0,1-.5-.29l-3.65-6.94-.24,5.41c-.05,1.1.6,1.36,1.11,1.42.12,0,0,.54-.08.54H148.3c-.13,0-.22-.52-.1-.54a1.29,1.29,0,0,0,1.32-1.42l.51-9.1c0-.26.61-.28.77,0L155.4,86l4.26-8.59c.14-.28.77-.26.79,0l.5,9.1c.07,1.1.64,1.34,1.3,1.42C162.38,87.9,162.28,88.42,162.17,88.42Z"/><path class="cls-1" d="M165.43,87.88c.81-.11,1.31-.43,1.31-1.42V79.3c0-1-.5-1.32-1.31-1.43-.13,0,0-.54.09-.54h4.34c.13,0,.22.53.1.54-.68.1-1.32.32-1.32,1.43v7.16c0,1.1.64,1.33,1.32,1.42.12,0,0,.54-.1.54h-4.34C165.4,88.42,165.3,87.9,165.43,87.88Z"/><path class="cls-1" d="M183,88.28l-7.54-7.89v6c0,1.08.63,1.25,1.54,1.47.12,0,.06.54-.1.54h-3.75c-.13,0-.22-.49-.08-.54.66-.22,1.3-.35,1.3-1.47V80.26a3.25,3.25,0,0,0-.59-2.21c-.14-.19-.28-.32-.28-.37a.33.33,0,0,1,.31-.35H175a.45.45,0,0,1,.38.15l7.38,7.8v-6c0-1.13-.72-1.25-1.54-1.46-.13,0-.06-.54.09-.54H185c.13,0,.2.51.08.54-.7.21-1.3.33-1.3,1.46v6.16a13.5,13.5,0,0,0,.19,2.79c.06.23-.19.3-.44.3A.72.72,0,0,1,183,88.28Z"/><path class="cls-1" d="M188.29,87.88c.81-.11,1.32-.43,1.32-1.42V79.3c0-1-.51-1.32-1.32-1.43-.12,0,0-.54.1-.54h4.34c.12,0,.22.53.09.54-.68.1-1.31.32-1.31,1.43v7.16c0,1.1.63,1.33,1.31,1.42.13,0,0,.54-.09.54h-4.34C188.26,88.42,188.17,87.9,188.29,87.88Z"/><path class="cls-1" d="M196.17,83.08a5.74,5.74,0,0,1,6.11-6c1.84,0,3.42.57,3.23,1.12l-.2.62c-.57,1.7-1.19-.47-4-.47-2.27,0-3.37,1.47-3.37,3.75a4.79,4.79,0,0,0,4.87,5.05,6.52,6.52,0,0,0,2.55-.74c.13-.08.46.28.37.43a6.18,6.18,0,0,1-3.3,1.83C199.76,88.67,196.17,87.12,196.17,83.08Z"/><path class="cls-1" d="M220.18,88.42H216c-.2,0-.22-.51-.05-.54.59-.11,1.22-.32.64-1.68l-.18-.39c-.15-.38-.42-.42-.9-.42h-3.23c-.47,0-.74,0-.9.42l-.16.39c-.56,1.36.05,1.57.81,1.68.2,0,.16.54-.05.54h-3.42c-.19,0-.24-.51-.05-.54.65-.11,1-.33,1.62-1.68l2.67-6.14a6.74,6.74,0,0,0,.81-2.65,2.31,2.31,0,0,1,1.16-.24l3.86,9c.57,1.34,1,1.6,1.59,1.69C220.44,87.91,220.37,88.42,220.18,88.42Zm-4.42-4.17-1.85-4.43L212,84.25c-.09.23.15.26.37.26h3C215.62,84.51,215.86,84.48,215.76,84.25Z"/><path class="cls-1" d="M233.08,88.28l-7.54-7.89v6c0,1.08.64,1.25,1.54,1.47.13,0,.06.54-.1.54h-3.75c-.13,0-.22-.49-.08-.54.67-.22,1.3-.35,1.3-1.47V80.26a3.2,3.2,0,0,0-.59-2.21c-.14-.19-.28-.32-.28-.37a.33.33,0,0,1,.32-.35h1.17a.43.43,0,0,1,.38.15l7.38,7.8v-6c0-1.13-.71-1.25-1.54-1.46-.12,0-.06-.54.1-.54h3.75c.13,0,.21.51.08.54-.7.21-1.3.33-1.3,1.46v6.16a13.5,13.5,0,0,0,.19,2.79c.07.23-.19.3-.44.3A.73.73,0,0,1,233.08,88.28Z"/><path class="cls-1" d="M249.44,88.42h-4.19c-.2,0-.22-.51,0-.54.58-.11,1.22-.32.63-1.68l-.17-.39c-.16-.38-.43-.42-.91-.42h-3.23c-.47,0-.74,0-.9.42l-.16.39c-.55,1.36.05,1.57.81,1.68.2,0,.16.54-.05.54h-3.42c-.19,0-.24-.51-.05-.54.65-.11,1-.33,1.62-1.68l2.67-6.14a6.74,6.74,0,0,0,.81-2.65,2.31,2.31,0,0,1,1.16-.24l3.86,9c.57,1.34,1,1.6,1.59,1.69C249.69,87.91,249.63,88.42,249.44,88.42ZM245,84.25l-1.86-4.43-1.87,4.43c-.09.23.15.26.37.26h3C244.87,84.51,245.11,84.48,245,84.25Z"/><rect class="cls-2" x="96.28" y="97.85" width="57.26" height="2.71"/></g></g></svg>